HIERARCHY
ROOT Hips
{
	OFFSET -0.001795 -0.223333 0.028219
	CHANNELS 6 Xposition Yposition Zposition Zrotation Yrotation Xrotation 
	JOINT LeftUpLeg
	{
		OFFSET 0.069520 -0.091406 -0.006815
		CHANNELS 3 Zrotation Yrotation Xrotation
		JOINT LeftLeg
		{
			OFFSET 0.034277 -0.375199 -0.004496
			CHANNELS 3 Zrotation Yrotation Xrotation
			JOINT LeftFoot
			{
				OFFSET -0.013596 -0.397961 -0.043693
				CHANNELS 3 Zrotation Yrotation Xrotation
				JOINT LeftToe
				{
					OFFSET 0.026358 -0.055791 0.119288
					CHANNELS 3 Zrotation Yrotation Xrotation
					End Site
					{
						OFFSET 0.000000 0.000000 0.000000
					}
				}
			}
		}
	}
	JOINT RightUpLeg
	{
		OFFSET -0.067670 -0.090522 -0.004320
		CHANNELS 3 Zrotation Yrotation Xrotation
		JOINT RightLeg
		{
			OFFSET -0.038290 -0.382569 -0.008850
			CHANNELS 3 Zrotation Yrotation Xrotation
			JOINT RightFoot
			{
				OFFSET 0.015774 -0.398415 -0.042312
				CHANNELS 3 Zrotation Yrotation Xrotation
				JOINT RightToe
				{
					OFFSET -0.025372 -0.048144 0.123348
					CHANNELS 3 Zrotation Yrotation Xrotation
					End Site
					{
						OFFSET 0.000000 0.000000 0.000000
					}
				}
			}
		}
	}
	JOINT Spine
	{
		OFFSET -0.002533 0.108963 -0.026696
		CHANNELS 3 Zrotation Yrotation Xrotation
		JOINT Spine1
		{
			OFFSET 0.005487 0.135180 0.001092
			CHANNELS 3 Zrotation Yrotation Xrotation
			JOINT Spine2
			{
				OFFSET 0.001457 0.052922 0.025425
				CHANNELS 3 Zrotation Yrotation Xrotation
				JOINT Neck
				{
					OFFSET -0.002778 0.213870 -0.042857
					CHANNELS 3 Zrotation Yrotation Xrotation
					JOINT Head
					{
						OFFSET 0.005152 0.064970 0.051349
						CHANNELS 3 Zrotation Yrotation Xrotation
						End Site
						{
							OFFSET 0.000000 0.000000 0.000000
						}
					}
				}
				JOINT LeftShoulder
				{
					OFFSET 0.078845 0.121749 -0.034090
					CHANNELS 3 Zrotation Yrotation Xrotation
					JOINT LeftArm
					{
						OFFSET 0.090977 0.030469 -0.008868
						CHANNELS 3 Zrotation Yrotation Xrotation
						JOINT LeftForeArm
						{
							OFFSET 0.259612 -0.012772 -0.027456
							CHANNELS 3 Zrotation Yrotation Xrotation
							JOINT LeftHand
							{
								OFFSET 0.249234 0.008986 -0.001171
								CHANNELS 3 Zrotation Yrotation Xrotation
								End Site
								{
									OFFSET 0.000000 0.000000 0.000000
								}
							}
						}
					}
				}
				JOINT RightShoulder
				{
					OFFSET -0.081759 0.118833 -0.038615
					CHANNELS 3 Zrotation Yrotation Xrotation
					JOINT RightArm
					{
						OFFSET -0.096012 0.032551 -0.009143
						CHANNELS 3 Zrotation Yrotation Xrotation
						JOINT RightForeArm
						{
							OFFSET -0.253742 -0.013329 -0.021401
							CHANNELS 3 Zrotation Yrotation Xrotation
							JOINT RightHand
							{
								OFFSET -0.255298 0.007772 -0.005559
								CHANNELS 3 Zrotation Yrotation Xrotation
								End Site
								{
									OFFSET 0.000000 0.000000 0.000000
								}
							}
						}
					}
				}
			}
		}
	}
}
MOTION
Frames: 14
Frame Time: 0.050000
0.000000 0.802480 0.000000 -1.029247 -9.047389 24.246775 3.422608 -0.342045 -71.229715 -9.001823 5.273790 54.399977 3.700070 3.461783 -12.781464 0.000000 0.000000 0.000000 -12.790038 2.935828 -59.043066 21.012701 -8.769872 49.332288 -19.026195 -45.692482 2.073704 0.000000 0.000000 0.000000 5.130640 -3.193209 67.526443 -7.668688 1.756355 -30.600469 -3.449413 1.911788 30.693684 14.265941 -6.312301 -26.518651 0.000000 0.000000 0.000000 -15.112831 -4.694675 2.040609 -50.225591 -3.821850 -6.928230 -44.439766 -74.368962 40.890665 0.000000 0.000000 0.000000 19.081352 -5.680184 -4.585428 54.891173 -4.590379 -9.662541 37.260445 59.452925 25.150669 0.000000 0.000000 0.000000 
0.001110 0.797786 0.000854 -1.731491 -9.952276 24.752514 4.204265 0.719521 -71.068056 -9.654980 5.837545 53.875615 4.089904 3.867766 -14.554326 0.000000 0.000000 0.000000 -12.337285 3.659737 -60.917553 21.663521 -9.488259 52.454254 -18.260195 -44.730278 0.768086 0.000000 0.000000 0.000000 3.611742 -1.630406 68.593796 -6.938085 1.516969 -33.801186 -1.279032 3.967195 33.391599 15.377212 -5.637784 -31.797586 0.000000 0.000000 0.000000 -18.194930 -7.046772 2.868299 -43.862732 -1.143232 -7.067559 -84.699795 -80.668373 81.357399 0.000000 0.000000 0.000000 21.333335 -8.330548 -5.884218 52.644682 -7.125039 -10.540246 44.351383 63.560905 32.755456 0.000000 0.000000 0.000000 
0.001564 0.793517 0.002492 -0.402417 -8.874397 23.171428 4.236235 0.080203 -70.023105 -9.431858 5.239501 50.964597 1.933754 -0.652338 -11.004054 0.000000 0.000000 0.000000 -14.451415 2.132615 -59.722481 24.322800 -11.728148 53.934426 -18.162708 -45.074206 -1.054419 0.000000 0.000000 0.000000 3.394282 -1.929052 69.618336 -5.698880 1.431551 -32.739534 -2.314014 4.064993 32.953035 14.520845 -5.828480 -28.567461 0.000000 0.000000 0.000000 -14.204996 -7.691502 3.086326 -48.728082 0.133183 -8.251623 -93.959064 -82.240730 92.354528 0.000000 0.000000 0.000000 21.841176 -7.316298 -5.158117 51.121984 -7.451812 -10.371017 54.240207 63.502891 39.706006 0.000000 0.000000 0.000000 
0.001872 0.789474 0.004489 0.091623 -7.702904 22.718376 3.468071 -1.035795 -70.195494 -7.092476 3.356400 48.536767 -0.614091 -5.212219 -7.011251 0.000000 0.000000 0.000000 -14.661394 1.583322 -59.970779 24.547445 -12.564828 55.417788 -19.850723 -47.068392 0.614352 0.000000 0.000000 0.000000 3.591396 -2.702723 70.549654 -6.514406 1.517295 -33.455089 -2.369825 2.933491 33.028858 15.497355 -5.967197 -31.100363 0.000000 0.000000 0.000000 -15.708938 -7.790151 3.382131 -47.451095 1.147822 -8.465890 -122.440221 -82.791615 122.904958 0.000000 0.000000 0.000000 22.416302 -7.223105 -5.439207 49.459495 -9.134383 -10.621970 62.133196 65.506863 46.637820 0.000000 0.000000 0.000000 
0.001744 0.782836 0.006834 0.265148 -7.922215 22.102443 4.001327 -0.582137 -70.829342 -8.372017 4.335794 50.656123 -0.344959 -4.835980 -7.533309 0.000000 0.000000 0.000000 -14.775485 1.571829 -59.375328 24.104446 -12.316798 56.000299 -19.003954 -46.932352 -1.932378 0.000000 0.000000 0.000000 3.464253 -2.495548 70.244470 -6.578555 1.536885 -33.256228 -2.787184 3.230854 33.146707 14.022020 -5.435168 -29.756026 0.000000 0.000000 0.000000 -14.736592 -8.540264 3.703198 -48.498775 0.920857 -8.568191 -144.143064 -83.368600 147.064236 0.000000 0.000000 0.000000 23.428212 -8.288264 -6.203432 46.740031 -9.432264 -10.140552 71.923783 64.702699 53.682320 0.000000 0.000000 0.000000 
0.001464 0.776480 0.008773 0.034361 -7.966869 20.819032 4.224865 -0.427242 -70.402980 -8.471997 4.610812 52.550275 -0.012848 -4.900778 -9.037767 0.000000 0.000000 0.000000 -14.295721 1.764859 -58.311864 23.283405 -11.778532 56.585458 -18.881193 -47.136017 -2.792111 0.000000 0.000000 0.000000 3.215271 -2.266500 71.453702 -6.872764 1.563895 -34.248663 -2.395948 2.885002 33.479764 13.992350 -5.360476 -30.358093 0.000000 0.000000 0.000000 -14.405887 -7.891881 3.398468 -48.280500 1.244424 -8.696354 -146.166152 -82.830640 149.139531 0.000000 0.000000 0.000000 21.779858 -8.482116 -6.118820 46.418512 -10.255599 -10.349481 79.634920 63.867900 59.221207 0.000000 0.000000 0.000000 
0.001309 0.773672 0.010084 0.038617 -7.895731 20.543125 4.732508 -0.112605 -70.528995 -9.391588 5.281718 53.215353 0.077497 -4.797053 -9.247242 0.000000 0.000000 0.000000 -14.042259 1.837555 -57.788266 22.408870 -11.063756 56.050126 -19.083643 -47.984315 -3.321823 0.000000 0.000000 0.000000 2.952113 -2.083201 71.193575 -6.803789 1.551440 -34.453158 -2.677608 2.931266 33.310369 14.083366 -5.442515 -30.166825 0.000000 0.000000 0.000000 -14.389004 -7.704787 3.282119 -47.479844 2.479414 -8.957030 -152.785896 -81.104789 155.578104 0.000000 0.000000 0.000000 21.740256 -8.914338 -6.383630 45.290440 -10.978027 -10.282900 88.722451 62.087857 65.247138 0.000000 0.000000 0.000000 
0.001603 0.774108 0.010893 -0.192869 -7.571889 20.476231 5.136096 0.016304 -70.425955 -9.800772 5.521219 53.197109 -0.010262 -4.949900 -9.092272 0.000000 0.000000 0.000000 -13.421084 1.996561 -57.136369 21.886488 -10.666877 55.657750 -18.778755 -48.213236 -4.647107 0.000000 0.000000 0.000000 2.768997 -2.082138 71.043126 -6.486996 1.506805 -34.990410 -2.262578 3.288663 33.387584 14.419585 -5.531973 -30.342267 0.000000 0.000000 0.000000 -15.599472 -7.826468 3.267655 -46.194933 2.976910 -8.866964 -151.695696 -80.892023 153.807376 0.000000 0.000000 0.000000 21.047628 -9.710771 -6.666107 43.982424 -11.033496 -9.981519 95.990371 61.335704 71.242885 0.000000 0.000000 0.000000 
0.002306 0.777768 0.011708 -0.326773 -7.527044 20.301773 5.665091 0.320178 -69.420471 -10.624810 5.961716 51.947643 -0.075575 -4.941681 -8.834211 0.000000 0.000000 0.000000 -12.727436 2.249484 -56.115965 21.040541 -9.898489 54.814357 -18.367876 -47.987777 -5.621114 0.000000 0.000000 0.000000 2.433109 -1.830041 70.270915 -6.107075 1.472081 -34.888937 -2.033082 3.728114 33.073979 14.881934 -5.651351 -30.654502 0.000000 0.000000 0.000000 -16.540788 -8.254770 3.393130 -45.754773 3.705017 -8.966267 -147.910071 -81.012738 149.142508 0.000000 0.000000 0.000000 20.750153 -10.162070 -6.791295 42.164069 -10.964614 -9.501351 100.302737 60.886650 74.917908 0.000000 0.000000 0.000000 
0.003338 0.782645 0.012962 -0.647448 -7.399827 19.841418 5.350654 0.043201 -68.647999 -9.695596 5.356965 51.866452 -0.352728 -5.279990 -8.222756 0.000000 0.000000 0.000000 -12.149280 2.412693 -54.973924 20.652145 -9.470809 54.038584 -18.468153 -47.557690 -4.780626 0.000000 0.000000 0.000000 2.391399 -1.837217 69.705938 -6.031472 1.465099 -35.064148 -1.765344 4.068233 33.208827 14.989149 -5.557844 -31.264298 0.000000 0.000000 0.000000 -16.178898 -7.827562 3.069010 -46.457829 3.627459 -9.101469 -137.636335 -81.087222 137.448174 0.000000 0.000000 0.000000 20.085179 -10.270118 -6.647804 41.829603 -9.784606 -9.125904 103.387071 61.173891 78.671390 0.000000 0.000000 0.000000 
0.004648 0.786276 0.015170 -0.938226 -7.422827 19.412919 4.775788 -0.336616 -67.667254 -8.432679 4.548175 51.634568 -0.402230 -5.584786 -8.515095 0.000000 0.000000 0.000000 -11.482810 2.626412 -53.564217 20.087577 -8.866866 53.067462 -18.094652 -47.229461 -5.586490 0.000000 0.000000 0.000000 2.332409 -1.768045 68.635394 -5.997061 1.460657 -35.121031 -1.400354 5.039571 32.914402 15.132697 -5.387322 -31.838774 0.000000 0.000000 0.000000 -16.748440 -8.183214 3.007105 -46.906118 3.451669 -9.086302 -119.662743 -81.736436 117.778215 0.000000 0.000000 0.000000 20.633750 -10.390708 -6.539059 40.637698 -8.101096 -8.452410 104.413400 62.297679 81.534495 0.000000 0.000000 0.000000 
0.006323 0.788246 0.018954 -1.153757 -7.577408 18.475912 4.380170 -0.543947 -66.458211 -7.673344 4.157075 52.018952 -0.363172 -5.757045 -8.985281 0.000000 0.000000 0.000000 -11.062703 2.758792 -52.273583 19.783301 -8.571596 53.189279 -18.159128 -46.818278 -5.010311 0.000000 0.000000 0.000000 2.519746 -1.819452 68.053299 -6.087877 1.470309 -35.116387 -1.339036 5.419684 32.812664 14.536314 -5.115009 -31.567242 0.000000 0.000000 0.000000 -17.214720 -7.959434 2.783066 -46.568693 3.069733 -8.894157 -93.782281 -82.380926 91.268713 0.000000 0.000000 0.000000 20.161117 -9.455081 -5.775472 40.736537 -6.359485 -8.049806 102.907860 62.952294 81.065787 0.000000 0.000000 0.000000 
0.008323 0.787932 0.024341 -1.502353 -8.176049 17.436142 3.883313 -0.630911 -65.267573 -6.565873 3.652950 52.999891 -0.078680 -5.778679 -10.270435 0.000000 0.000000 0.000000 -10.545324 3.038233 -51.216369 19.502866 -8.281351 54.019472 -18.150554 -46.349921 -4.557220 0.000000 0.000000 0.000000 2.431081 -1.493030 66.712750 -5.867359 1.461450 -34.326017 -1.282296 6.542823 32.134981 14.219613 -4.826144 -31.398491 0.000000 0.000000 0.000000 -17.387708 -8.814791 2.964140 -47.097146 3.782916 -9.140579 -72.298043 -81.178974 68.500607 0.000000 0.000000 0.000000 21.943641 -8.579069 -5.169523 39.560453 -4.961271 -7.511449 97.353539 63.838697 76.713873 0.000000 0.000000 0.000000 
0.010490 0.786948 0.031352 -1.590648 -8.582296 16.236882 3.188506 -0.932805 -63.832278 -5.594727 3.201477 53.954166 0.294021 -5.766380 -11.877902 0.000000 0.000000 0.000000 -10.259518 3.116879 -49.730426 19.210477 -7.999393 54.767750 -17.995831 -46.029586 -4.887676 0.000000 0.000000 0.000000 2.503176 -1.377341 65.434784 -6.121306 1.505204 -33.721753 -1.146971 6.619514 31.736953 13.404749 -4.514320 -31.070720 0.000000 0.000000 0.000000 -19.145903 -8.382469 2.690298 -45.446792 4.789839 -9.114462 -64.157185 -79.141463 58.896043 0.000000 0.000000 0.000000 22.937994 -7.909859 -4.867833 38.666668 -4.447070 -7.244062 92.807379 62.790636 70.926644 0.000000 0.000000 0.000000 
